<svg xmlns="http://www.w3.org/2000/svg" viewBox="0 0 280.1 90.87"><defs><style>.cls-1{fill:#fff;}</style></defs><g id="Layer_2" data-name="Layer 2"><g id="Layer_1-2" data-name="Layer 1"><path class="cls-1" d="M26.51,73.7V46H29L29,50a8.51,8.51,0,0,1,7.58-4.28c5.27.15,9.21,3.79,9.21,9.66,0,6.1-4,9.74-9.48,9.74A8.12,8.12,0,0,1,29,61V73.72ZM43.3,55.4c0-4.66-3-7.2-7-7.2a7.24,7.24,0,0,0,0,14.48c3.94,0,7-2.58,7-7.28"/><path class="cls-1" d="M53,46l.15,3.07a6.35,6.35,0,0,1,6-3.37A6.77,6.77,0,0,1,63.34,47l-1.17,2.12a5.53,5.53,0,0,0-3.22-1,5.78,5.78,0,0,0-5.8,5.76h0v10.8H50.57V46Z"/><path class="cls-1" d="M83.77,55.44a9.63,9.63,0,0,1-19.26,0c0-5.8,4-9.74,9.63-9.74a9.33,9.33,0,0,1,9.63,9v.7m-16.71,0a6.83,6.83,0,0,0,6.4,7.23,4,4,0,0,0,.69,0c4.21,0,7.09-2.88,7.09-7.24S78.32,48,74.15,48s-7.09,3.1-7.09,7.43"/><path class="cls-1" d="M94.08,40.39V46h6.37v1.55H94.08V59c0,2.54.53,4.32,3.45,4.32a6.85,6.85,0,0,0,2.88-.76l.64,1.52a7.9,7.9,0,0,1-3.52,1c-4,0-5.27-2.35-5.27-6V47.59h-4V46h4V40.58Z"/><path class="cls-1" d="M106.1,46l.08,3.34a6.6,6.6,0,0,1,6.22-3.52,7.29,7.29,0,0,1,4,1.1l-.83,1.52a6,6,0,0,0-3.18-.87,6.22,6.22,0,0,0-6.16,6.23V64.75h-1.86V46Z"/><path class="cls-1" d="M136.53,46V64.76h-1.86v-4A8.72,8.72,0,0,1,127,65a9.63,9.63,0,0,1,0-19.25,8.51,8.51,0,0,1,7.66,4.32V46Zm-17.17,9.36a7.51,7.51,0,0,0,7.17,7.84H127c10.42,0,10.42-15.65,0-15.65a7.49,7.49,0,0,0-7.66,7.29,4.34,4.34,0,0,0,0,.51"/><path class="cls-1" d="M144.49,46v3.34a7.49,7.49,0,0,1,6.67-3.68c5,0,8.45,3.07,8.45,8.26v10.8h-1.86V54c0-4.24-2.61-6.52-6.67-6.48A6.52,6.52,0,0,0,144.51,54V64.76h-1.86V46Z"/><path class="cls-1" d="M177.83,49.45a8,8,0,0,0-5.84-2c-2.92,0-5.72,1.06-5.65,3.45s3.33,3,5.68,3.41c3.34.57,7.92,1.14,7.73,5.5-.11,4.13-4.4,5.23-7.69,5.23s-6.56-1.25-8.19-3.75l1.36-1.21a8.26,8.26,0,0,0,6.86,3.18c2.27,0,5.72-.61,5.84-3.56.08-2.69-3-3.22-6.1-3.71-3.64-.61-7.24-1.29-7.28-5s3.64-5.27,7.43-5.23a9.83,9.83,0,0,1,7,2.5Z"/><rect class="cls-1" x="184.77" y="38.23" width="1.86" height="26.53"/><path class="cls-1" d="M210.83,46V64.76H209v-4A8.69,8.69,0,0,1,201.31,65a9.63,9.63,0,0,1,0-19.25A8.51,8.51,0,0,1,209,50.11V46Zm-17.17,9.36a7.51,7.51,0,0,0,7.17,7.84h.48c10.42,0,10.42-15.65,0-15.65a7.5,7.5,0,0,0-7.66,7.28v.52"/><path class="cls-1" d="M221,40.39V46h6.37v1.55H221V59c0,2.54.53,4.32,3.45,4.32a6.85,6.85,0,0,0,2.88-.76l.64,1.52a7.9,7.9,0,0,1-3.52,1c-4,0-5.27-2.35-5.27-6V47.59h-4V46h4V40.58Z"/><path class="cls-1" d="M233.66,39.93a1.5,1.5,0,1,1-1.5-1.5,1.5,1.5,0,0,1,1.5,1.5M231.2,64.76h1.86V46H231.2Z"/><path class="cls-1" d="M241,46v3.34a7.49,7.49,0,0,1,6.67-3.68c5,0,8.45,3.07,8.45,8.26v10.8h-1.86V54c0-4.24-2.61-6.52-6.67-6.48A6.52,6.52,0,0,0,241,54V64.76h-1.86V46Z"/><path class="cls-1" d="M278.19,45.09l1.21,1.06-1.93,2.27a8.46,8.46,0,0,1,2.62,6.44c0,3.26-1.9,7.13-6,8.11,3.37.76,5.84,2.77,5.84,6.18,0,4.47-4.47,6.86-9.44,6.86s-9.25-2.73-9.25-7.47h1.86c0,3.83,3.64,5.69,7.39,5.69s7.62-1.44,7.62-5.08S274,64,270.49,64c-5.65,0-9.66-3.3-9.66-9.13,0-6.06,5.15-9.13,9.66-9.13a11.12,11.12,0,0,1,5.76,1.63Zm-15.5,9.75c0,5,3.41,7.39,7.81,7.39a7.42,7.42,0,0,0,7.76-7.1,1.4,1.4,0,0,0,0-.29c0-5.19-3.9-7.39-7.77-7.39-3.6,0-7.81,2.27-7.81,7.39"/><path class="cls-1" d="M95.93,90.66l-.28-1.46s0,0-.06,0h-2a.06.06,0,0,0-.06,0l-.3,1.46a.13.13,0,0,1-.14.11h-1c-.09,0-.12-.06-.11-.14L93.86,82a.14.14,0,0,1,.14-.11h1.12a.14.14,0,0,1,.14.11l1.91,8.61a.11.11,0,0,1-.12.14h-1A.13.13,0,0,1,95.93,90.66Zm-2.19-2.47h1.67s0,0,0,0l-.84-4.33s0,0,0,0l-.86,4.33S93.71,88.19,93.74,88.19Z"/><path class="cls-1" d="M125.35,90.65V82a.12.12,0,0,1,.12-.13h1a.12.12,0,0,1,.13.13v7.63a.05.05,0,0,0,0,0h2.84a.12.12,0,0,1,.12.13v.8a.12.12,0,0,1-.12.12h-4A.12.12,0,0,1,125.35,90.65Z"/><path class="cls-1" d="M134.49,90.66l-.28-1.46s0,0-.07,0h-2s-.07,0-.07,0l-.29,1.46a.13.13,0,0,1-.14.11h-1a.1.1,0,0,1-.11-.14L132.42,82a.14.14,0,0,1,.14-.11h1.12a.12.12,0,0,1,.13.11l1.92,8.61a.11.11,0,0,1-.12.14h-1A.13.13,0,0,1,134.49,90.66Zm-2.19-2.47H134s0,0,0,0l-.83-4.33s0,0,0,0l-.86,4.33S132.27,88.19,132.3,88.19Z"/><path class="cls-1" d="M136.9,90.65V82a.12.12,0,0,1,.13-.13h1a.15.15,0,0,1,.14.1l2.25,5.59c0,.05.06,0,.06,0V82a.12.12,0,0,1,.13-.13h.95a.12.12,0,0,1,.12.13v8.61a.12.12,0,0,1-.12.12h-1a.13.13,0,0,1-.14-.1l-2.25-5.58s-.07,0-.07,0l0,5.56a.12.12,0,0,1-.13.12H137A.12.12,0,0,1,136.9,90.65Z"/><path class="cls-1" d="M143.06,88.66V84a2.29,2.29,0,0,1,4.57,0v.53a.12.12,0,0,1-.13.13h-1a.12.12,0,0,1-.13-.13V84a1.08,1.08,0,1,0-2.15,0v4.66a1.08,1.08,0,1,0,2.15,0V87.28a0,0,0,0,0,0,0h-1a.12.12,0,0,1-.13-.13v-.78a.12.12,0,0,1,.13-.13h2.1a.12.12,0,0,1,.13.13v2.34a2.29,2.29,0,0,1-4.57,0Z"/><path class="cls-1" d="M148.89,88.37V82a.12.12,0,0,1,.13-.13h1a.12.12,0,0,1,.13.13v6.45c0,.79.43,1.33,1.08,1.33s1.08-.54,1.08-1.33V82a.12.12,0,0,1,.13-.13h1a.12.12,0,0,1,.13.13v6.33a2.31,2.31,0,1,1-4.6,0Z"/><path class="cls-1" d="M158.44,90.66l-.28-1.46s0,0-.06,0h-2a.06.06,0,0,0-.06,0l-.29,1.46a.14.14,0,0,1-.14.11h-1c-.08,0-.12-.06-.11-.14L156.38,82a.13.13,0,0,1,.14-.11h1.11a.13.13,0,0,1,.14.11l1.91,8.61c0,.08,0,.14-.11.14h-1A.13.13,0,0,1,158.44,90.66Zm-2.19-2.47h1.67s0,0,0,0l-.84-4.33s0,0-.05,0l-.86,4.33S156.22,88.19,156.25,88.19Z"/><path class="cls-1" d="M160.5,88.66V84a2.29,2.29,0,0,1,4.57,0v.53a.12.12,0,0,1-.12.13h-1a.12.12,0,0,1-.13-.13V84a1.08,1.08,0,1,0-2.15,0v4.66a1.08,1.08,0,1,0,2.15,0V87.28a.05.05,0,0,0-.05,0h-1a.12.12,0,0,1-.13-.13v-.78a.12.12,0,0,1,.13-.13H165a.12.12,0,0,1,.12.13v2.34a2.29,2.29,0,0,1-4.57,0Z"/><path class="cls-1" d="M170.52,83h-2.85a.05.05,0,0,0,0,.05v2.75a.05.05,0,0,0,0,0h1.75a.12.12,0,0,1,.12.13v.79a.12.12,0,0,1-.12.13h-1.75a.05.05,0,0,0,0,0v2.76a0,0,0,0,0,0,0h2.85a.12.12,0,0,1,.12.13v.8a.12.12,0,0,1-.12.12h-4a.12.12,0,0,1-.13-.12V82a.12.12,0,0,1,.13-.13h4a.12.12,0,0,1,.12.13v.79A.12.12,0,0,1,170.52,83Z"/><path class="cls-1" d="M174.23,88.58V84.09a2.29,2.29,0,0,1,4.57,0v.2a.12.12,0,0,1-.13.13l-1,0a.12.12,0,0,1-.13-.13V84a1.07,1.07,0,1,0-2.14,0v4.66a1.07,1.07,0,1,0,2.14,0v-.33a.12.12,0,0,1,.13-.12l1,0a.12.12,0,0,1,.13.12v.19a2.29,2.29,0,1,1-4.57,0Z"/><path class="cls-1" d="M180,88.56V84.14a2.32,2.32,0,1,1,4.63,0v4.42a2.32,2.32,0,0,1-4.63,0Zm3.42,0V84.08a1.1,1.1,0,0,0-1.12-1.22,1.09,1.09,0,0,0-1.08,1.22v4.53a1.09,1.09,0,0,0,1.08,1.21A1.1,1.1,0,0,0,183.37,88.61Z"/><path class="cls-1" d="M186,90.65V82a.13.13,0,0,1,.13-.13h1a.13.13,0,0,1,.14.1l1.29,3.08s.07,0,.08,0L189.88,82a.13.13,0,0,1,.14-.1h1a.12.12,0,0,1,.12.13v8.61a.12.12,0,0,1-.12.12h-1a.12.12,0,0,1-.13-.12V84.91s0,0-.06,0l-1.18,2.51c0,.06-.06.08-.1.08a.14.14,0,0,1-.13-.08l-1.18-2.52s-.06,0-.06,0v5.75a.12.12,0,0,1-.13.12h-1A.12.12,0,0,1,186,90.65Z"/><path class="cls-1" d="M197.14,84.44c0,1.5-.84,2.48-2.11,2.48h-1.19a.05.05,0,0,0-.05,0v3.68a.12.12,0,0,1-.13.12h-1a.12.12,0,0,1-.13-.12V82a.12.12,0,0,1,.13-.12H195A2.25,2.25,0,0,1,197.14,84.44Zm-1.21,0c0-.94-.47-1.52-1.15-1.52h-.94a0,0,0,0,0-.05,0v2.9a.05.05,0,0,0,.05,0h.94C195.46,86,195.93,85.39,195.93,84.47Z"/><path class="cls-1" d="M201.49,90.66l-.28-1.46s0,0-.07,0h-2s-.07,0-.07,0l-.29,1.46a.13.13,0,0,1-.14.11h-1a.1.1,0,0,1-.11-.14L199.42,82a.14.14,0,0,1,.14-.11h1.12a.14.14,0,0,1,.14.11l1.91,8.61a.11.11,0,0,1-.12.14h-1A.13.13,0,0,1,201.49,90.66Zm-2.19-2.47H201s0,0,0,0l-.84-4.33s0,0,0,0l-.86,4.33S199.27,88.19,199.3,88.19Z"/><path class="cls-1" d="M203.9,90.65V82a.13.13,0,0,1,.13-.13h1a.15.15,0,0,1,.14.1l2.25,5.59c0,.05.06,0,.06,0V82a.12.12,0,0,1,.13-.13h.95a.13.13,0,0,1,.13.13v8.61a.12.12,0,0,1-.13.12h-1a.13.13,0,0,1-.14-.1l-2.25-5.58s-.06,0-.06,0v5.56a.12.12,0,0,1-.13.12H204A.12.12,0,0,1,203.9,90.65Z"/><path class="cls-1" d="M211.64,90.63V87s0-.05,0-.06l-1.76-4.9c0-.09,0-.14.1-.14h1a.15.15,0,0,1,.15.1l1.08,3.5s.06,0,.08,0l1.07-3.5a.18.18,0,0,1,.15-.1h1c.09,0,.12,0,.1.14L212.87,87s0,0,0,.06v3.62a.12.12,0,0,1-.13.13h-1A.12.12,0,0,1,211.64,90.63Z"/><path class="cls-1" d="M100.14,90.58c.62-.4.72-.53.72-1.41V83.35c0-.89-.1-1-.72-1.41v-.1H105c2.2,0,2.84,1.21,2.84,2,0,1.19-1.26,1.68-2.32,1.81v0c1.26.15,2.82.79,2.82,2.47s-1.67,2.54-3.77,2.54h-4.43Zm3.79-4.9A1.49,1.49,0,0,0,105.3,84c0-1.27-.64-1.73-1.37-1.73h-.55v3.4Zm1.73,2.54c0-2.17-1.2-2.13-1.6-2.09l-.68,0v3.42c0,.35.53.58.88.63C105,90.19,105.66,89.69,105.66,88.22Z"/><path class="cls-1" d="M109,90.58c.6-.4.69-.53.69-1.41V83.35c0-.89-.09-1-.69-1.41v-.1h4v.1c-.58.39-.68.52-.68,1.41v5.82c0,.88.1,1,.68,1.41v.1h-4Z"/><path class="cls-1" d="M113.33,86.35c0-3.34,2.15-4.68,4.89-4.68a8.8,8.8,0,0,1,3.42.64l0,2.64h-.17c-.9-1.51-2.27-2.84-3.15-2.84s-2.22.91-2.22,4.17,1.17,4.09,2.19,4.09c.35,0,.85-.16.85-1.05v-1.5c0-.93-.39-1.56-1.28-1.59v-.16h3.79V90.7h-.11c-.27,0-.57-.06-1.13-.06-.92,0-1.56.21-2.94.21S113.33,90.08,113.33,86.35Z"/><path class="cls-1" d="M49.45,28.06a2.61,2.61,0,0,0-3.64-2.44c-4.72.68-21.57,2.82-26.77-.19C13.65,22.32,6.79,5.61,5.32,1.9a2.23,2.23,0,0,0-.16-.4C5.08,1.28,5,1.16,5,1.16H5A2.64,2.64,0,0,0,.54,3.93a2.61,2.61,0,0,0,.71.8C4.16,8.43,14.5,22,14.51,28c0,7-14,24.27-14,24.27h0l-.15.2A2.66,2.66,0,1,0,5,55.16H5a.94.94,0,0,0,.1-.23h0s8-20.77,14-24.27c5.3-3.06,22.73-.77,27-.15a2.46,2.46,0,0,0,.76.12H47A2.59,2.59,0,0,0,49.39,28"/></g></g></svg>